<svg xmlns="http://www.w3.org/2000/svg" viewBox="0 0 64 64">
  <defs>
    <linearGradient id="g" x1="0" y1="0" x2="1" y2="1">
      <stop offset="0" stop-color="#14b8a6"/>
      <stop offset="1" stop-color="#0ea5e9"/>
    </linearGradient>
  </defs>
  <rect width="64" height="64" rx="12" fill="url(#g)"/>
  <g fill="#fff">
    <path d="M18 44V20h10.5c5.5 0 8.5 3.3 8.5 7.8 0 4.8-3.6 8.2-9 8.2H24v8h-6zm6-14h4.7c2 0 3.5-1.3 3.5-3.2 0-1.8-1.3-3.0-3.5-3.0H24v6.2z"/>
    <path d="M46 20h-6l-9 24h6l2-5.5h8L49 44h6L46 20zm-4.6 13L44 25l2.6 8h-5.2z"/>
  </g>
</svg>
